<mxfile host="Electron" agent="Mozilla/5.0 (Windows NT 10.0; Win64; x64) AppleWebKit/537.36 (KHTML, like Gecko) draw.io/24.7.5 Chrome/126.0.6478.183 Electron/31.3.0 Safari/537.36" version="24.7.5">
  <diagram name="PÃ¡gina-1" id="tjEfFU8aL_545DcAS6ed">
    <mxGraphModel dx="1050" dy="629" grid="1" gridSize="10" guides="1" tooltips="1" connect="1" arrows="1" fold="1" page="1" pageScale="1" pageWidth="1169" pageHeight="827" math="0" shadow="0">
      <root>
        <mxCell id="0" />
        <mxCell id="1" parent="0" />
        <mxCell id="2U8HLw4yBvRxwLlqdCKt-8" value="" style="rounded=0;whiteSpace=wrap;html=1;shadow=0;glass=0;fillColor=#f5f5f5;strokeColor=#666666;fontColor=#333333;" parent="1" vertex="1">
          <mxGeometry x="180" y="50" width="740" height="610" as="geometry" />
        </mxCell>
        <mxCell id="5rI1s0MqLcz_tWoIK_E4-1" value="Administrador" style="shape=umlActor;verticalLabelPosition=bottom;verticalAlign=top;html=1;rounded=0;fillColor=#ffe6cc;strokeColor=#d79b00;" parent="1" vertex="1">
          <mxGeometry x="70" y="150" width="30" height="60" as="geometry" />
        </mxCell>
        <mxCell id="5rI1s0MqLcz_tWoIK_E4-3" value="Auxiliar" style="shape=umlActor;verticalLabelPosition=bottom;verticalAlign=top;html=1;rounded=0;fillColor=#d5e8d4;strokeColor=#82b366;" parent="1" vertex="1">
          <mxGeometry x="70" y="355" width="30" height="60" as="geometry" />
        </mxCell>
        <mxCell id="5rI1s0MqLcz_tWoIK_E4-4" value="Iniciar sesion" style="ellipse;whiteSpace=wrap;html=1;rounded=0;" parent="1" vertex="1">
          <mxGeometry x="480" y="60" width="110" height="50" as="geometry" />
        </mxCell>
        <mxCell id="2U8HLw4yBvRxwLlqdCKt-4" value="Evaluado" style="shape=umlActor;verticalLabelPosition=bottom;verticalAlign=top;html=1;rounded=0;fillColor=#e1d5e7;strokeColor=#9673a6;" parent="1" vertex="1">
          <mxGeometry x="70" y="610" width="30" height="60" as="geometry" />
        </mxCell>
        <mxCell id="2U8HLw4yBvRxwLlqdCKt-7" value="" style="endArrow=classic;html=1;rounded=0;entryX=0;entryY=0.5;entryDx=0;entryDy=0;" parent="1" target="5rI1s0MqLcz_tWoIK_E4-4" edge="1">
          <mxGeometry width="50" height="50" relative="1" as="geometry">
            <mxPoint x="110" y="170" as="sourcePoint" />
            <mxPoint x="660" y="400" as="targetPoint" />
          </mxGeometry>
        </mxCell>
        <mxCell id="2U8HLw4yBvRxwLlqdCKt-13" value="Crear examen" style="ellipse;whiteSpace=wrap;html=1;rounded=0;" parent="1" vertex="1">
          <mxGeometry x="480" y="120" width="110" height="50" as="geometry" />
        </mxCell>
        <mxCell id="2U8HLw4yBvRxwLlqdCKt-14" value="" style="endArrow=classic;html=1;rounded=0;entryX=0;entryY=0.5;entryDx=0;entryDy=0;" parent="1" target="2U8HLw4yBvRxwLlqdCKt-13" edge="1">
          <mxGeometry width="50" height="50" relative="1" as="geometry">
            <mxPoint x="110" y="180" as="sourcePoint" />
            <mxPoint x="540" y="85" as="targetPoint" />
          </mxGeometry>
        </mxCell>
        <mxCell id="2U8HLw4yBvRxwLlqdCKt-15" value="Consultar persona" style="ellipse;whiteSpace=wrap;html=1;rounded=0;" parent="1" vertex="1">
          <mxGeometry x="690" y="360" width="110" height="50" as="geometry" />
        </mxCell>
        <mxCell id="2U8HLw4yBvRxwLlqdCKt-16" value="" style="endArrow=none;dashed=1;html=1;rounded=0;" parent="1" source="2U8HLw4yBvRxwLlqdCKt-15" target="O2-fvv_gG5lxalqekOQM-1" edge="1">
          <mxGeometry width="50" height="50" relative="1" as="geometry">
            <mxPoint x="950" y="210" as="sourcePoint" />
            <mxPoint x="600" y="95" as="targetPoint" />
          </mxGeometry>
        </mxCell>
        <mxCell id="2U8HLw4yBvRxwLlqdCKt-17" value="include" style="edgeLabel;html=1;align=center;verticalAlign=middle;resizable=0;points=[];rounded=0;" parent="2U8HLw4yBvRxwLlqdCKt-16" vertex="1" connectable="0">
          <mxGeometry x="-0.5708" relative="1" as="geometry">
            <mxPoint x="-12" y="-9" as="offset" />
          </mxGeometry>
        </mxCell>
        <mxCell id="2U8HLw4yBvRxwLlqdCKt-20" value="Registrar persona" style="ellipse;whiteSpace=wrap;html=1;rounded=0;" parent="1" vertex="1">
          <mxGeometry x="320" y="290" width="110" height="50" as="geometry" />
        </mxCell>
        <mxCell id="2U8HLw4yBvRxwLlqdCKt-21" value="" style="endArrow=classic;html=1;rounded=0;entryX=0;entryY=0.5;entryDx=0;entryDy=0;" parent="1" target="2U8HLw4yBvRxwLlqdCKt-25" edge="1">
          <mxGeometry width="50" height="50" relative="1" as="geometry">
            <mxPoint x="110" y="375" as="sourcePoint" />
            <mxPoint x="530" y="175" as="targetPoint" />
          </mxGeometry>
        </mxCell>
        <mxCell id="2U8HLw4yBvRxwLlqdCKt-23" value="" style="endArrow=none;dashed=1;html=1;rounded=0;entryX=1;entryY=0.5;entryDx=0;entryDy=0;exitX=0;exitY=0.5;exitDx=0;exitDy=0;" parent="1" source="2U8HLw4yBvRxwLlqdCKt-15" target="2U8HLw4yBvRxwLlqdCKt-20" edge="1">
          <mxGeometry width="50" height="50" relative="1" as="geometry">
            <mxPoint x="684" y="512" as="sourcePoint" />
            <mxPoint x="535" y="350" as="targetPoint" />
          </mxGeometry>
        </mxCell>
        <mxCell id="2U8HLw4yBvRxwLlqdCKt-24" value="include" style="edgeLabel;html=1;align=center;verticalAlign=middle;resizable=0;points=[];rounded=0;" parent="2U8HLw4yBvRxwLlqdCKt-23" vertex="1" connectable="0">
          <mxGeometry x="-0.5708" relative="1" as="geometry">
            <mxPoint x="-57" y="-20" as="offset" />
          </mxGeometry>
        </mxCell>
        <mxCell id="2U8HLw4yBvRxwLlqdCKt-25" value="Actualizar persona" style="ellipse;whiteSpace=wrap;html=1;rounded=0;" parent="1" vertex="1">
          <mxGeometry x="320" y="350" width="110" height="50" as="geometry" />
        </mxCell>
        <mxCell id="2U8HLw4yBvRxwLlqdCKt-26" value="Anular persona" style="ellipse;whiteSpace=wrap;html=1;rounded=0;" parent="1" vertex="1">
          <mxGeometry x="320" y="410" width="110" height="50" as="geometry" />
        </mxCell>
        <mxCell id="2U8HLw4yBvRxwLlqdCKt-27" value="" style="endArrow=classic;html=1;rounded=0;entryX=0;entryY=0.5;entryDx=0;entryDy=0;" parent="1" target="2U8HLw4yBvRxwLlqdCKt-26" edge="1">
          <mxGeometry width="50" height="50" relative="1" as="geometry">
            <mxPoint x="110" y="390" as="sourcePoint" />
            <mxPoint x="450" y="385" as="targetPoint" />
          </mxGeometry>
        </mxCell>
        <mxCell id="2U8HLw4yBvRxwLlqdCKt-28" value="" style="endArrow=classic;html=1;rounded=0;entryX=0;entryY=0.5;entryDx=0;entryDy=0;" parent="1" target="2U8HLw4yBvRxwLlqdCKt-20" edge="1">
          <mxGeometry width="50" height="50" relative="1" as="geometry">
            <mxPoint x="110" y="360" as="sourcePoint" />
            <mxPoint x="460" y="395" as="targetPoint" />
          </mxGeometry>
        </mxCell>
        <mxCell id="2U8HLw4yBvRxwLlqdCKt-29" value="" style="endArrow=none;dashed=1;html=1;rounded=0;entryX=1;entryY=0.5;entryDx=0;entryDy=0;exitX=-0.009;exitY=0.7;exitDx=0;exitDy=0;exitPerimeter=0;" parent="1" source="2U8HLw4yBvRxwLlqdCKt-15" target="2U8HLw4yBvRxwLlqdCKt-25" edge="1">
          <mxGeometry width="50" height="50" relative="1" as="geometry">
            <mxPoint x="640" y="395" as="sourcePoint" />
            <mxPoint x="510" y="335" as="targetPoint" />
          </mxGeometry>
        </mxCell>
        <mxCell id="2U8HLw4yBvRxwLlqdCKt-30" value="include" style="edgeLabel;html=1;align=center;verticalAlign=middle;resizable=0;points=[];rounded=0;" parent="2U8HLw4yBvRxwLlqdCKt-29" vertex="1" connectable="0">
          <mxGeometry x="-0.5708" relative="1" as="geometry">
            <mxPoint x="-57" y="-6" as="offset" />
          </mxGeometry>
        </mxCell>
        <mxCell id="2U8HLw4yBvRxwLlqdCKt-31" value="" style="endArrow=none;dashed=1;html=1;rounded=0;exitX=1;exitY=0.5;exitDx=0;exitDy=0;entryX=0.091;entryY=0.88;entryDx=0;entryDy=0;entryPerimeter=0;" parent="1" source="2U8HLw4yBvRxwLlqdCKt-26" target="2U8HLw4yBvRxwLlqdCKt-15" edge="1">
          <mxGeometry width="50" height="50" relative="1" as="geometry">
            <mxPoint x="670" y="405" as="sourcePoint" />
            <mxPoint x="520" y="345" as="targetPoint" />
          </mxGeometry>
        </mxCell>
        <mxCell id="2U8HLw4yBvRxwLlqdCKt-32" value="include" style="edgeLabel;html=1;align=center;verticalAlign=middle;resizable=0;points=[];rounded=0;" parent="2U8HLw4yBvRxwLlqdCKt-31" vertex="1" connectable="0">
          <mxGeometry x="-0.5708" relative="1" as="geometry">
            <mxPoint x="76" y="-16" as="offset" />
          </mxGeometry>
        </mxCell>
        <mxCell id="2U8HLw4yBvRxwLlqdCKt-33" value="Hacer consultas" style="ellipse;whiteSpace=wrap;html=1;rounded=0;" parent="1" vertex="1">
          <mxGeometry x="320" y="470" width="110" height="50" as="geometry" />
        </mxCell>
        <mxCell id="2U8HLw4yBvRxwLlqdCKt-34" value="" style="endArrow=classic;html=1;rounded=0;entryX=0;entryY=0.5;entryDx=0;entryDy=0;" parent="1" target="2U8HLw4yBvRxwLlqdCKt-33" edge="1">
          <mxGeometry width="50" height="50" relative="1" as="geometry">
            <mxPoint x="110" y="410" as="sourcePoint" />
            <mxPoint x="450" y="445" as="targetPoint" />
          </mxGeometry>
        </mxCell>
        <mxCell id="2U8HLw4yBvRxwLlqdCKt-35" value="Hacer examen" style="ellipse;whiteSpace=wrap;html=1;rounded=0;" parent="1" vertex="1">
          <mxGeometry x="495" y="590" width="110" height="50" as="geometry" />
        </mxCell>
        <mxCell id="2U8HLw4yBvRxwLlqdCKt-36" value="" style="endArrow=classic;html=1;rounded=0;entryX=0.036;entryY=0.66;entryDx=0;entryDy=0;entryPerimeter=0;" parent="1" target="2U8HLw4yBvRxwLlqdCKt-35" edge="1">
          <mxGeometry width="50" height="50" relative="1" as="geometry">
            <mxPoint x="110" y="640" as="sourcePoint" />
            <mxPoint x="550" y="515" as="targetPoint" />
          </mxGeometry>
        </mxCell>
        <mxCell id="O2-fvv_gG5lxalqekOQM-1" value="Asignar examen" style="ellipse;whiteSpace=wrap;html=1;rounded=0;" parent="1" vertex="1">
          <mxGeometry x="470" y="200" width="110" height="50" as="geometry" />
        </mxCell>
        <mxCell id="O2-fvv_gG5lxalqekOQM-2" value="" style="endArrow=classic;html=1;rounded=0;" parent="1" target="O2-fvv_gG5lxalqekOQM-1" edge="1">
          <mxGeometry width="50" height="50" relative="1" as="geometry">
            <mxPoint x="110" y="190" as="sourcePoint" />
            <mxPoint x="540" y="145" as="targetPoint" />
          </mxGeometry>
        </mxCell>
        <mxCell id="O2-fvv_gG5lxalqekOQM-3" value="Iniciar sesion" style="ellipse;whiteSpace=wrap;html=1;rounded=0;" parent="1" vertex="1">
          <mxGeometry x="495" y="530" width="110" height="50" as="geometry" />
        </mxCell>
        <mxCell id="O2-fvv_gG5lxalqekOQM-6" value="" style="endArrow=classic;html=1;rounded=0;entryX=0.027;entryY=0.64;entryDx=0;entryDy=0;entryPerimeter=0;" parent="1" target="O2-fvv_gG5lxalqekOQM-3" edge="1">
          <mxGeometry width="50" height="50" relative="1" as="geometry">
            <mxPoint x="110" y="630" as="sourcePoint" />
            <mxPoint x="554" y="593" as="targetPoint" />
          </mxGeometry>
        </mxCell>
        <mxCell id="O2-fvv_gG5lxalqekOQM-7" value="" style="endArrow=none;dashed=1;html=1;rounded=0;exitX=1;exitY=0.5;exitDx=0;exitDy=0;" parent="1" source="2U8HLw4yBvRxwLlqdCKt-33" edge="1">
          <mxGeometry width="50" height="50" relative="1" as="geometry">
            <mxPoint x="440" y="445" as="sourcePoint" />
            <mxPoint x="700" y="410" as="targetPoint" />
          </mxGeometry>
        </mxCell>
        <mxCell id="O2-fvv_gG5lxalqekOQM-8" value="include" style="edgeLabel;html=1;align=center;verticalAlign=middle;resizable=0;points=[];rounded=0;" parent="O2-fvv_gG5lxalqekOQM-7" vertex="1" connectable="0">
          <mxGeometry x="-0.5708" relative="1" as="geometry">
            <mxPoint x="76" y="-17" as="offset" />
          </mxGeometry>
        </mxCell>
        <mxCell id="O2-fvv_gG5lxalqekOQM-9" value="" style="endArrow=none;dashed=1;html=1;rounded=0;exitX=1;exitY=0.5;exitDx=0;exitDy=0;entryX=0.422;entryY=0.992;entryDx=0;entryDy=0;entryPerimeter=0;" parent="1" edge="1">
          <mxGeometry width="50" height="50" relative="1" as="geometry">
            <mxPoint x="605" y="555.4" as="sourcePoint" />
            <mxPoint x="736.4200000000001" y="409.9999999999999" as="targetPoint" />
          </mxGeometry>
        </mxCell>
        <mxCell id="O2-fvv_gG5lxalqekOQM-10" value="include" style="edgeLabel;html=1;align=center;verticalAlign=middle;resizable=0;points=[];rounded=0;" parent="O2-fvv_gG5lxalqekOQM-9" vertex="1" connectable="0">
          <mxGeometry x="-0.5708" relative="1" as="geometry">
            <mxPoint x="37" y="-44" as="offset" />
          </mxGeometry>
        </mxCell>
      </root>
    </mxGraphModel>
  </diagram>
</mxfile>
